<svg width="31" height="38" viewBox="0 0 31 38" fill="none" xmlns="http://www.w3.org/2000/svg">
<path id="Union" fill-rule="evenodd" clip-rule="evenodd" d="M13.6837 2.52965C13.6837 1.51713 14.5045 0.69632 15.517 0.69632H28.7985C29.811 0.69632 30.6318 1.51713 30.6318 2.52965V24.2852C30.6318 25.2977 29.811 26.1186 28.7985 26.1186H15.517C14.5045 26.1186 13.6837 25.2977 13.6837 24.2852V2.52965ZM20.3274 16.8279V16.5932C20.3334 15.5039 20.4357 14.6372 20.6343 13.9932C20.839 13.3492 21.1279 12.8316 21.501 12.4404C21.8742 12.0432 22.3286 11.6791 22.8642 11.3481C23.2313 11.1194 23.5593 10.8696 23.8482 10.5988C24.1431 10.3219 24.3749 10.015 24.5434 9.67793C24.7119 9.33488 24.7962 8.9527 24.7962 8.5314C24.7962 8.05594 24.6848 7.64367 24.4621 7.2946C24.2394 6.94552 23.9385 6.67469 23.5593 6.4821C23.1862 6.2895 22.7679 6.19321 22.3045 6.19321C21.8772 6.19321 21.4709 6.28649 21.0857 6.47307C20.7066 6.65362 20.3906 6.93048 20.1378 7.30363C19.8911 7.67075 19.7526 8.13719 19.7225 8.70293H16.5086C16.5387 7.55941 16.8156 6.60247 17.3392 5.8321C17.8688 5.06173 18.567 4.48395 19.4336 4.09876C20.3063 3.71358 21.2693 3.52098 22.3225 3.52098C23.4721 3.52098 24.4832 3.7226 25.3559 4.12585C26.2346 4.52909 26.9177 5.10386 27.4052 5.85015C27.8987 6.59043 28.1455 7.46913 28.1455 8.48626C28.1455 9.17238 28.0341 9.78627 27.8114 10.3279C27.5948 10.8696 27.2848 11.3511 26.8816 11.7724C26.4783 12.1937 25.9999 12.5698 25.4462 12.9009C24.9587 13.2018 24.5584 13.5147 24.2455 13.8397C23.9385 14.1647 23.7098 14.5469 23.5593 14.9863C23.4149 15.4196 23.3397 15.9553 23.3337 16.5932V16.8279H20.3274ZM21.8982 22.4613C21.3566 22.4613 20.8901 22.2687 20.4989 21.8835C20.1077 21.4983 19.9121 21.0289 19.9121 20.4752C19.9121 19.9335 20.1077 19.4701 20.4989 19.0849C20.8901 18.6997 21.3566 18.5071 21.8982 18.5071C22.4339 18.5071 22.8973 18.6997 23.2885 19.0849C23.6857 19.4701 23.8843 19.9335 23.8843 20.4752C23.8843 20.8423 23.7911 21.1763 23.6045 21.4772C23.4239 21.7782 23.1832 22.0189 22.8823 22.1995C22.5874 22.374 22.2593 22.4613 21.8982 22.4613ZM1.57664 15.6062L12.2733 9.43045V25.6977C12.2733 26.7102 13.0941 27.531 14.1066 27.531H25.9146L26.4609 28.4773C26.9672 29.3542 26.6667 30.4755 25.7899 30.9817L14.2878 37.6225C13.4109 38.1287 12.2896 37.8283 11.7834 36.9514L0.905594 18.1105C0.399333 17.2337 0.699771 16.1124 1.57664 15.6062Z" fill="#00DAFA"/>
</svg>
